<?xml version="1.0" encoding="UTF-8" standalone="no"?>
<!-- Created with Inkscape (http://www.inkscape.org/) -->

<svg
   width="32"
   height="32"
   viewBox="0 0 8.4666666 8.466667"
   version="1.1"
   id="svg5"
   inkscape:export-filename="C:\Users\aappl\Desktop\metron1.png"
   inkscape:export-xdpi="96"
   inkscape:export-ydpi="96"
   inkscape:version="1.1 (c68e22c387, 2021-05-23)"
   sodipodi:docname="metron_icon.svg"
   xmlns:inkscape="http://www.inkscape.org/namespaces/inkscape"
   xmlns:sodipodi="http://sodipodi.sourceforge.net/DTD/sodipodi-0.dtd"
   xmlns="http://www.w3.org/2000/svg"
   xmlns:svg="http://www.w3.org/2000/svg">
  <sodipodi:namedview
     id="namedview7"
     pagecolor="#ffffff"
     bordercolor="#666666"
     borderopacity="1.0"
     inkscape:pageshadow="2"
     inkscape:pageopacity="0.0"
     inkscape:pagecheckerboard="0"
     inkscape:document-units="mm"
     showgrid="true"
     units="px"
     inkscape:zoom="22.627417"
     inkscape:cx="21.743534"
     inkscape:cy="19.423339"
     inkscape:window-width="1802"
     inkscape:window-height="1457"
     inkscape:window-x="976"
     inkscape:window-y="407"
     inkscape:window-maximized="0"
     inkscape:current-layer="layer7">
    <inkscape:grid
       type="xygrid"
       id="grid824"
       empspacing="8"
       originx="0"
       originy="0"
       spacingx="0.13229167"
       spacingy="0.13229167" />
  </sodipodi:namedview>
  <defs
     id="defs2" />
  <g
     inkscape:groupmode="layer"
     id="layer7"
     inkscape:label="bg"
     style="display:inline">
    <rect
       style="font-variation-settings:normal;opacity:1;fill:#808080;fill-opacity:1;stroke:#000000;stroke-width:0;stroke-linecap:round;stroke-linejoin:miter;stroke-miterlimit:4;stroke-dasharray:none;stroke-dashoffset:0;stroke-opacity:1;stop-color:#000000;stop-opacity:1"
       id="rect5449"
       width="8.4666662"
       height="8.4666662"
       x="0"
       y="0"
       inkscape:export-filename="U:\home\aappleby\Metron\docs\app\favicon.ico"
       inkscape:export-xdpi="96"
       inkscape:export-ydpi="96" />
  </g>
  <g
     inkscape:groupmode="layer"
     id="layer8"
     inkscape:label="fill"
     style="display:inline">
    <path
       style="font-variation-settings:normal;opacity:1;fill:#1f21e0;fill-opacity:1;stroke:#000000;stroke-width:0.0625;stroke-linecap:round;stroke-linejoin:miter;stroke-miterlimit:4;stroke-dasharray:none;stroke-dashoffset:0;stroke-opacity:1;stop-color:#000000;stop-opacity:1"
       d="M 3.015625,16 V 3.015625 h 1.6145614 1.6145614 l 0.4245013,0.2228878 c 2.5591628,1.3437099 5.1420989,2.9947963 7.2128149,4.6106375 l 0.538314,0.4200625 -0.853754,0.8497685 c -1.328211,1.3220107 -2.201634,2.3256307 -3.227963,3.7091437 -2.4634975,3.320847 -4.1064891,7.005574 -4.6818695,10.5 -0.1063608,0.645955 -0.1830316,1.463699 -0.162936,1.737819 0.027627,0.376856 0.2228577,0.671025 0.5618765,0.846624 0.1385802,0.07178 0.2028374,0.08466 0.428643,0.08593 0.257375,0.0015 0.2801806,-0.0046 0.734281,-0.196117 0.7397437,-0.311923 2.2497153,-0.821913 2.6631506,-0.899474 l 0.1025684,-0.01924 v 2.050353 2.050353 H 6.5 3.015625 Z"
       id="path17003"
       transform="scale(0.26458333)" />
    <path
       style="font-variation-settings:normal;opacity:1;fill:#1f8ae0;fill-opacity:1;stroke:#000000;stroke-width:0.0625;stroke-linecap:round;stroke-linejoin:miter;stroke-miterlimit:4;stroke-dasharray:none;stroke-dashoffset:0;stroke-opacity:1;stop-color:#000000;stop-opacity:1"
       d="m 7.703125,23.406748 c 0,-0.0083 0.036009,-0.187618 0.08002,-0.398438 0.2975676,-1.425402 0.7917976,-2.903143 1.4701303,-4.395669 1.3346017,-2.936504 3.5657577,-5.99842 6.1644577,-8.459763 l 0.573984,-0.5436446 0.347891,0.3203833 c 0.539531,0.4968693 1.551062,1.5194193 2.046268,2.0685583 2.875631,3.188816 4.825246,6.638581 5.670137,10.033075 0.142006,0.570535 0.29161,1.319043 0.268296,1.342358 -0.007,0.007 -0.258645,-0.07162 -0.559163,-0.174767 -1.823642,-0.62591 -3.559259,-0.97827 -5.702646,-1.157734 -0.609307,-0.05102 -2.813186,-0.05059 -3.453125,6.77e-4 -2.32566,0.186294 -4.270569,0.559964 -6.3796919,1.225715 -0.5028203,0.158717 -0.5265581,0.164995 -0.5265581,0.139249 z"
       id="path17042"
       transform="scale(0.26458333)" />
    <path
       style="font-variation-settings:normal;opacity:1;fill:#9800ff;fill-opacity:1;stroke:#000000;stroke-width:0.0625;stroke-linecap:round;stroke-linejoin:miter;stroke-miterlimit:4;stroke-dasharray:none;stroke-dashoffset:0;stroke-opacity:1;stop-color:#000000;stop-opacity:1"
       d="m 22.015625,26.890625 c 0,-1.830975 0.0058,-2.09375 0.04641,-2.09375 0.07433,0 1.403002,0.446184 1.806162,0.606531 0.202509,0.08054 0.589227,0.246599 0.859375,0.369015 0.48917,0.221666 0.492326,0.222584 0.772427,0.224681 0.262443,0.002 0.294406,-0.005 0.477986,-0.104173 0.205118,-0.110807 0.321809,-0.233629 0.447543,-0.471054 0.06994,-0.132065 0.0744,-0.172011 0.07334,-0.65625 -0.0013,-0.590053 -0.04409,-1.040707 -0.170761,-1.798012 C 25.691038,19.158774 23.739859,15.182099 20.758875,11.617024 19.949071,10.648548 18.748401,9.3799981 17.926953,8.625 17.659372,8.3790647 17.561637,8.270651 17.583482,8.2440019 c 0.04722,-0.057602 1.18005,-0.9349163 1.64334,-1.2726753 1.753964,-1.2787173 3.897436,-2.5967518 5.932062,-3.6476617 L 25.755268,3.015625 h 1.614554 1.614553 V 16 28.984375 H 25.5 22.015625 Z"
       id="path17081"
       transform="scale(0.26458333)" />
  </g>
  <g
     inkscape:label="xor1"
     inkscape:groupmode="layer"
     id="layer1"
     style="display:inline" />
  <g
     inkscape:groupmode="layer"
     id="layer6"
     inkscape:label="xor2"
     style="display:inline">
    <path
       style="fill:none;stroke:#000000;stroke-width:0.529167;stroke-linecap:round;stroke-linejoin:miter;stroke-miterlimit:4;stroke-dasharray:none;stroke-opacity:1"
       d="m 1.7197917,6.6145835 c 0,0 2.5135416,-1.190625 5.0270835,0"
       id="path2227-7" />
    <path
       style="fill:none;stroke:#000000;stroke-width:0.529167;stroke-linecap:butt;stroke-linejoin:miter;stroke-miterlimit:4;stroke-dasharray:none;stroke-opacity:1"
       d="m 2.9104167,6.3500002 v 1.5875"
       id="path2223"
       sodipodi:nodetypes="cc"
       inkscape:export-filename="C:\Users\aappl\Desktop\path2223.png"
       inkscape:export-xdpi="96"
       inkscape:export-ydpi="96" />
    <path
       style="fill:none;stroke:#000000;stroke-width:0.529167;stroke-linecap:butt;stroke-linejoin:miter;stroke-miterlimit:4;stroke-dasharray:none;stroke-opacity:1"
       d="M 5.5562501,6.2177085 V 8.0697919"
       id="path2225"
       sodipodi:nodetypes="cc"
       inkscape:export-filename="C:\Users\aappl\Desktop\path2223.png"
       inkscape:export-xdpi="96"
       inkscape:export-ydpi="96" />
    <path
       style="fill:none;stroke:#000000;stroke-width:0.529167;stroke-linecap:butt;stroke-linejoin:miter;stroke-miterlimit:4;stroke-dasharray:none;stroke-opacity:1"
       d="M 1.7197917,0.52916668 H 0.52916668 V 7.9375002"
       id="path9879"
       sodipodi:nodetypes="ccc" />
    <path
       style="fill:none;stroke:#000000;stroke-width:0.529167;stroke-linecap:butt;stroke-linejoin:miter;stroke-miterlimit:4;stroke-dasharray:none;stroke-opacity:1"
       d="m 6.7468752,0.52916668 h 1.190625 V 7.9375002"
       id="path10759"
       sodipodi:nodetypes="ccc" />
    <path
       style="fill:none;stroke:#000000;stroke-width:0.529167;stroke-linecap:round;stroke-linejoin:miter;stroke-miterlimit:4;stroke-dasharray:none;stroke-opacity:1"
       d="m 1.7197917,6.6145835 c 0,0 0,-3.5718751 5.0270835,-6.08541682"
       id="path14783"
       sodipodi:nodetypes="cc" />
    <path
       style="fill:none;stroke:#000000;stroke-width:0.529167;stroke-linecap:round;stroke-linejoin:miter;stroke-miterlimit:4;stroke-dasharray:none;stroke-opacity:1"
       d="m 6.7468752,6.6145835 c 0,0 0.1322916,-3.4395834 -5.0270835,-6.08541682"
       id="path15198"
       sodipodi:nodetypes="cc" />
  </g>
  <g
     inkscape:groupmode="layer"
     id="layer5"
     inkscape:label="frame"
     style="display:inline">
    <path
       style="fill:none;stroke:#000000;stroke-width:0.529167;stroke-linecap:square;stroke-linejoin:miter;stroke-miterlimit:4;stroke-dasharray:none;stroke-opacity:1"
       d="M 2.9104167,7.9375002 H 0.52916668"
       id="path4803"
       sodipodi:nodetypes="cc"
       inkscape:export-filename="C:\Users\aappl\Desktop\path2223.png"
       inkscape:export-xdpi="96"
       inkscape:export-ydpi="96" />
    <path
       style="display:inline;fill:none;stroke:#000000;stroke-width:0.529167;stroke-linecap:square;stroke-linejoin:miter;stroke-miterlimit:4;stroke-dasharray:none;stroke-opacity:1"
       d="M 5.5562501,7.9375002 H 7.9375002"
       id="path4768"
       sodipodi:nodetypes="cc"
       inkscape:export-filename="C:\Users\aappl\Desktop\path2223.png"
       inkscape:export-xdpi="96"
       inkscape:export-ydpi="96" />
  </g>
</svg>
