<?xml version="1.0" encoding="UTF-8" standalone="no"?>
<!-- Created with Inkscape (http://www.inkscape.org/) -->

<svg
   width="40"
   height="40"
   viewBox="0 0 10.583333 10.583334"
   version="1.1"
   id="svg5"
   inkscape:export-filename="U:\home\aappleby\Metron\docs\metron_icon.png"
   inkscape:export-xdpi="614.3999"
   inkscape:export-ydpi="614.3999"
   inkscape:version="1.1 (c68e22c387, 2021-05-23)"
   sodipodi:docname="metron_icon.svg"
   xmlns:inkscape="http://www.inkscape.org/namespaces/inkscape"
   xmlns:sodipodi="http://sodipodi.sourceforge.net/DTD/sodipodi-0.dtd"
   xmlns="http://www.w3.org/2000/svg"
   xmlns:svg="http://www.w3.org/2000/svg">
  <sodipodi:namedview
     id="namedview7"
     pagecolor="#ffffff"
     bordercolor="#666666"
     borderopacity="1.0"
     inkscape:pageshadow="2"
     inkscape:pageopacity="0.0"
     inkscape:pagecheckerboard="0"
     inkscape:document-units="mm"
     showgrid="true"
     units="px"
     inkscape:zoom="8"
     inkscape:cx="52.75"
     inkscape:cy="36.8125"
     inkscape:window-width="1802"
     inkscape:window-height="1457"
     inkscape:window-x="976"
     inkscape:window-y="407"
     inkscape:window-maximized="1"
     inkscape:current-layer="layer8"
     fit-margin-top="0"
     fit-margin-left="0"
     fit-margin-right="0"
     fit-margin-bottom="0"
     showguides="true">
    <inkscape:grid
       type="xygrid"
       id="grid824"
       empspacing="8"
       originx="0"
       originy="0"
       spacingx="0.13229167"
       spacingy="0.13229167"
       visible="true"
       enabled="false" />
  </sodipodi:namedview>
  <defs
     id="defs2" />
  <g
     inkscape:groupmode="layer"
     id="layer7"
     inkscape:label="bg"
     style="display:inline"
     transform="translate(1.0583339,1.0583339)">
    <rect
       style="font-variation-settings:normal;opacity:1;fill:#808080;fill-opacity:1;stroke:#000000;stroke-width:0;stroke-linecap:round;stroke-linejoin:miter;stroke-miterlimit:4;stroke-dasharray:none;stroke-dashoffset:0;stroke-opacity:1;stop-color:#000000;stop-opacity:1"
       id="rect5449"
       width="10.583334"
       height="10.583334"
       x="-1.0583334"
       y="-1.0583334"
       inkscape:export-filename="U:\home\aappleby\Metron\docs\app\favicon.ico"
       inkscape:export-xdpi="96"
       inkscape:export-ydpi="96" />
  </g>
  <g
     inkscape:groupmode="layer"
     id="layer8"
     inkscape:label="fill"
     style="display:inline;opacity:1"
     transform="translate(1.0583339,1.0583339)">
    <path
       style="font-variation-settings:normal;opacity:1;fill:#00a0e7;fill-opacity:1;stroke:#000000;stroke-width:0.015625;stroke-linecap:round;stroke-linejoin:round;stroke-miterlimit:4;stroke-dasharray:none;stroke-dashoffset:0;stroke-opacity:1;stop-color:#000000;stop-opacity:1"
       d="m 10.265786,28.752895 c 6.71e-4,-3.14508 0.535756,-6.342347 1.509313,-9.01852 0.29845,-0.820397 0.522435,-1.345795 0.912582,-2.140625 1.411583,-2.875763 3.330381,-5.216124 5.859194,-7.146467 0.478378,-0.365164 1.401277,-0.994158 1.458692,-0.994158 0.0231,0 0.26108,0.1479485 0.528839,0.3287745 1.602884,1.0824765 3.039884,2.3809175 4.236166,3.8277025 2.480388,2.999785 4.053888,6.712358 4.665695,11.00841 0.201131,1.41232 0.264518,2.232201 0.288439,3.730852 l 0.01854,1.161365 L 29.231,29.254284 c -0.589407,-0.294498 -1.120692,-0.509289 -1.809122,-0.731402 -4.277741,-1.380156 -10.566009,-1.380156 -14.84375,0 -0.687119,0.22169 -1.219512,0.436803 -1.804688,0.729182 l -0.507812,0.253726 1.61e-4,-0.752895 z"
       id="path13114"
       transform="matrix(0.26458333,0,0,0.26458333,-1.0583339,-1.0583339)" />
    <path
       style="font-variation-settings:normal;opacity:1;fill:#4c30e0;fill-opacity:1;stroke:#000000;stroke-width:0.015625;stroke-linecap:round;stroke-linejoin:round;stroke-miterlimit:4;stroke-dasharray:none;stroke-dashoffset:0;stroke-opacity:1;stop-color:#000000;stop-opacity:1"
       d="M 6.265625,19.997736 V 6.2610976 l 2.3515625,0.013737 c 2.4403175,0.014255 2.5340215,0.018656 3.4765625,0.1632775 1.678011,0.2574701 3.498039,0.7982552 5.163691,1.5342874 0.86287,0.3812924 2.260046,1.120036 2.206324,1.1665733 -0.01445,0.012514 -0.209078,0.1467541 -0.432515,0.298312 -2.107928,1.4298092 -4.002214,3.3439122 -5.44327,5.5002152 -2.169037,3.245606 -3.402101,7.065751 -3.7775275,11.703125 -0.051125,0.631509 -0.1006941,3.272666 -0.064154,3.418254 0.028351,0.112957 0.1402632,0.206746 0.2466975,0.206746 0.056811,0 0.203172,-0.07069 0.392545,-0.189582 0.620065,-0.389301 1.579439,-0.805616 2.551959,-1.107409 0.394025,-0.122273 1.324522,-0.362356 1.695312,-0.437416 l 0.101563,-0.02056 v 2.611858 2.611858 H 10.5 6.265625 Z"
       id="path13190"
       transform="matrix(0.26458333,0,0,0.26458333,-1.0583339,-1.0583339)" />
    <path
       style="font-variation-settings:normal;opacity:1;vector-effect:none;fill:#4c30e0;fill-opacity:1;stroke:#000000;stroke-width:0.015625;stroke-linecap:round;stroke-linejoin:round;stroke-miterlimit:4;stroke-dasharray:none;stroke-dashoffset:0;stroke-opacity:1;-inkscape-stroke:none;stop-color:#000000;stop-opacity:1"
       d="m 25.265625,31.122517 v -2.611858 l 0.101562,0.02019 c 0.365499,0.07266 1.427786,0.349893 1.806257,0.471398 0.967473,0.310597 1.89458,0.721151 2.485928,1.100851 0.295496,0.189737 0.399122,0.204779 0.527636,0.07659 l 0.08616,-0.08594 -0.01689,-1.453125 C 30.239225,27.17313 30.203745,26.533317 30.076917,25.40625 29.296571,18.471652 26.146372,12.958017 20.932014,9.4003903 L 20.520278,9.119473 20.866276,8.9221452 C 22.930381,7.7449574 25.331932,6.879105 27.632927,6.4825054 28.708411,6.2971349 28.856983,6.2888936 31.382812,6.274499 L 33.734375,6.261098 V 19.997736 33.734375 H 29.5 25.265625 Z"
       id="path13229"
       transform="matrix(0.26458333,0,0,0.26458333,-1.0583339,-1.0583339)" />
  </g>
  <g
     inkscape:groupmode="layer"
     id="layer5"
     inkscape:label="frame"
     style="display:inline;opacity:1"
     transform="translate(1.0583339,1.0583339)">
    <path
       style="fill:none;stroke:#000000;stroke-width:0.52916667;stroke-linecap:round;stroke-linejoin:round;stroke-miterlimit:4;stroke-dasharray:none;stroke-opacity:1"
       d="m 2.9104162,6.4822913 -10e-8,1.4552083 H 0.52916613 V 0.52916613 l 1.05833337,10e-9 c 1.5875,0 5.4239585,1.32291676 5.2916668,6.35000016 -1.190625,-0.79375 -4.1010417,-0.79375 -5.2916668,0 C 1.4637342,1.8536344 5.2916663,0.52916614 6.8791663,0.52916614 l 1.0583333,-10e-9 V 7.9374996 h -2.38125 V 6.4822913"
       id="path993"
       sodipodi:nodetypes="cccccccccccc" />
  </g>
</svg>
