<?xml version="1.0" encoding="UTF-8" standalone="no"?>
<!-- Created with Inkscape (http://www.inkscape.org/) -->

<svg
   width="40"
   height="40"
   viewBox="0 0 10.583333 10.583334"
   version="1.1"
   id="svg5"
   inkscape:export-filename="U:\home\aappleby\Metron\docs\metron_icon.png"
   inkscape:export-xdpi="614.3999"
   inkscape:export-ydpi="614.3999"
   inkscape:version="1.1 (c68e22c387, 2021-05-23)"
   sodipodi:docname="metron_icon.svg"
   xmlns:inkscape="http://www.inkscape.org/namespaces/inkscape"
   xmlns:sodipodi="http://sodipodi.sourceforge.net/DTD/sodipodi-0.dtd"
   xmlns="http://www.w3.org/2000/svg"
   xmlns:svg="http://www.w3.org/2000/svg">
  <sodipodi:namedview
     id="namedview7"
     pagecolor="#ffffff"
     bordercolor="#666666"
     borderopacity="1.0"
     inkscape:pageshadow="2"
     inkscape:pageopacity="0.0"
     inkscape:pagecheckerboard="0"
     inkscape:document-units="mm"
     showgrid="true"
     units="px"
     inkscape:zoom="8"
     inkscape:cx="61"
     inkscape:cy="23.4375"
     inkscape:window-width="1802"
     inkscape:window-height="1457"
     inkscape:window-x="976"
     inkscape:window-y="407"
     inkscape:window-maximized="1"
     inkscape:current-layer="layer8"
     fit-margin-top="0"
     fit-margin-left="0"
     fit-margin-right="0"
     fit-margin-bottom="0"
     showguides="true">
    <inkscape:grid
       type="xygrid"
       id="grid824"
       empspacing="8"
       originx="0"
       originy="0"
       spacingx="0.13229167"
       spacingy="0.13229167"
       visible="true"
       enabled="false" />
  </sodipodi:namedview>
  <defs
     id="defs2" />
  <g
     inkscape:groupmode="layer"
     id="layer7"
     inkscape:label="bg"
     style="display:inline"
     transform="translate(1.0583339,1.0583339)"
     sodipodi:insensitive="true">
    <rect
       style="font-variation-settings:normal;opacity:1;fill:#808080;fill-opacity:1;stroke:#000000;stroke-width:0;stroke-linecap:round;stroke-linejoin:miter;stroke-miterlimit:4;stroke-dasharray:none;stroke-dashoffset:0;stroke-opacity:1;stop-color:#000000;stop-opacity:1"
       id="rect5449"
       width="10.583334"
       height="10.583334"
       x="-1.0583334"
       y="-1.0583334"
       inkscape:export-filename="U:\home\aappleby\Metron\docs\app\favicon.ico"
       inkscape:export-xdpi="96"
       inkscape:export-ydpi="96" />
  </g>
  <g
     inkscape:groupmode="layer"
     id="layer8"
     inkscape:label="fill"
     style="display:inline;opacity:1"
     transform="translate(1.0583339,1.0583339)">
    <path
       style="font-variation-settings:normal;opacity:1;fill:#00a0e7;fill-opacity:1;stroke:#000000;stroke-width:0.01562498;stroke-linecap:round;stroke-linejoin:round;stroke-miterlimit:4;stroke-dasharray:none;stroke-dashoffset:0;stroke-opacity:1;stop-color:#000000;stop-opacity:1;vector-effect:none;-inkscape-stroke:none"
       d="m 10.301533,28.336699 c 0.20643,-5.860685 2.303796,-10.751975 6.269478,-14.621115 0.889702,-0.868043 1.902216,-1.71347 2.810681,-2.346857 0.508916,-0.354819 0.6165,-0.406627 0.733607,-0.353269 0.390442,0.177897 2.186533,1.602448 3.007163,2.385101 3.754318,3.580573 5.820134,7.73153 6.441464,12.943191 0.114801,0.962936 0.197863,3.153139 0.118123,3.114694 -0.03138,-0.01513 -0.326056,-0.157402 -0.654842,-0.316165 -4.598411,-2.220455 -13.456003,-2.220455 -18.054414,0 -0.328786,0.158763 -0.623431,0.301025 -0.654765,0.316139 -0.03398,0.01639 -0.04064,-0.436271 -0.0165,-1.121719 z"
       id="path15208"
       transform="matrix(0.26458333,0,0,0.26458333,-1.0583339,-1.0583339)" />
    <path
       style="font-variation-settings:normal;opacity:1;fill:#4c30e0;fill-opacity:1;stroke:#000000;stroke-width:0.01562498;stroke-linecap:round;stroke-linejoin:round;stroke-miterlimit:4;stroke-dasharray:none;stroke-dashoffset:0;stroke-opacity:1;stop-color:#000000;stop-opacity:1;vector-effect:none;-inkscape-stroke:none"
       d="M 6.28125,20 V 6.28125 h 0.1580275 c 0.3819254,0 2.0491481,0.2042142 2.8011886,0.343111 1.7952729,0.3315749 3.9980629,0.9723209 5.7094999,1.660775 1.482152,0.596221 4.456284,2.135068 4.456284,2.305728 0,0.03123 -0.229051,0.218193 -0.509001,0.415479 -1.841405,1.297674 -3.867432,3.296629 -5.156304,5.087407 -2.136548,2.968551 -3.411677,6.355322 -3.8709197,10.28125 -0.1347768,1.152167 -0.1948001,3.684748 -0.090314,3.810646 0.1123152,0.135331 0.2796667,0.11887 0.5543447,-0.05453 0.975535,-0.615829 2.434702,-1.157203 4.212819,-1.563024 l 0.171875,-0.03923 v 2.59494 2.594941 H 10.5 6.28125 Z"
       id="path15284"
       transform="matrix(0.26458333,0,0,0.26458333,-1.0583339,-1.0583339)" />
    <path
       style="font-variation-settings:normal;opacity:1;fill:#4c30e0;fill-opacity:1;stroke:#000000;stroke-width:0.01562498;stroke-linecap:round;stroke-linejoin:round;stroke-miterlimit:4;stroke-dasharray:none;stroke-dashoffset:0;stroke-opacity:1;stop-color:#000000;stop-opacity:1;vector-effect:none;-inkscape-stroke:none"
       d="m 25.28125,31.123809 v -2.59494 l 0.171875,0.03923 c 1.778117,0.405821 3.237284,0.947195 4.212819,1.563024 0.262874,0.165945 0.42671,0.188726 0.540306,0.07513 0.09542,-0.09542 0.100459,-1.670471 0.0093,-2.89375 C 29.717892,20.63835 26.809247,15.292482 21.5,11.294068 c -0.48125,-0.362432 -0.875,-0.685065 -0.875,-0.716963 0,-0.0319 0.435937,-0.307672 0.96875,-0.6128288 C 24.840608,8.1047068 28.964263,6.7473514 32.492391,6.3768454 32.993058,6.3242679 33.473807,6.28125 33.560722,6.28125 H 33.71875 V 20 33.71875 H 29.5 25.28125 Z"
       id="path15323"
       transform="matrix(0.26458333,0,0,0.26458333,-1.0583339,-1.0583339)" />
  </g>
  <g
     inkscape:groupmode="layer"
     id="layer5"
     inkscape:label="frame"
     style="display:inline;opacity:1"
     transform="translate(1.0583339,1.0583339)">
    <path
       style="fill:none;stroke:#000000;stroke-width:0.52916667;stroke-linecap:round;stroke-linejoin:round;stroke-miterlimit:4;stroke-dasharray:none;stroke-opacity:1"
       d="m 2.9104162,6.4822913 -10e-8,1.4552083 H 0.52916613 v -7.40833347 0 c 1.58749997,0 6.48229187,1.32291677 6.35000017,6.35000017 -1.190625,-0.79375 -4.1010417,-0.79375 -5.2916668,0 C 1.4637342,1.8536344 6.3499996,0.52916613 7.9374996,0.52916613 v 0 7.40833347 h -2.38125 V 6.4822913"
       id="path993"
       sodipodi:nodetypes="cccccccccccc" />
  </g>
</svg>
